<?xml version="1.0" encoding="utf-8"?>
<!-- Generator: Adobe Illustrator 28.2.0, SVG Export Plug-In . SVG Version: 6.00 Build 0)  -->
<svg version="1.1" id="Ebene_1" xmlns="http://www.w3.org/2000/svg" xmlns:xlink="http://www.w3.org/1999/xlink" x="0px" y="0px"
	 viewBox="0 0 310.6 100" style="enable-background:new 0 0 310.6 100;" xml:space="preserve">
<style type="text/css">
	.st0{fill:#0A1A31;}
	.st1{fill:#F6D621;}
	.st2{fill:#C62370;}
	.st3{fill:none;}
	.st4{fill:none;stroke:#F6D621;stroke-width:0.25;stroke-miterlimit:10;}
	.st5{fill:#F6D621;stroke:#FFFFFF;stroke-miterlimit:10;}
	.st6{fill:#C62370;stroke:#FFFFFF;stroke-miterlimit:10;}
	.st7{fill:#0A1A31;stroke:#FFFFFF;stroke-miterlimit:10;}
</style>
<g>
	<g>
		<path class="st2" d="M25.7,65.6c0-1.5,1-3,3.6-3c2.5,0,3.5,1.3,3.6,3h6.7c-0.2-5.5-4.3-9.1-10.4-9.1c-6.2,0-10.4,3.9-10.4,9.3
			c0,11.5,14.2,6.7,14.2,11.5c0,1.8-1.1,3-3.9,3c-2.8,0-3.9-1.1-3.9-3h-7c0.1,5.6,4.4,9.1,10.8,9.1c6.5,0,10.8-3.6,10.8-9.3
			C40,65.6,25.7,70.4,25.7,65.6z"/>
		<path class="st3" d="M152.8,30.6c0-1-0.7-2.1-2.1-2.2l0,0c-1.2,0-2.2,1-2.2,2.2c0,1.2,1,2.2,2.2,2.2
			C152.1,32.7,152.8,31.7,152.8,30.6z M150.7,31.9c-0.7,0-1.3-0.6-1.3-1.3c0-0.7,0.6-1.3,1.3-1.3c0.9,0,1.3,0.7,1.3,1.3
			C151.9,31.3,151.5,31.9,150.7,31.9z"/>
		<path class="st3" d="M127.2,63.6h-4.6v6.6h4.6c2.9,0,3.7-1.4,3.7-3.3C130.9,65,130,63.6,127.2,63.6z"/>
		<path class="st3" d="M97.4,63c-3.9,0-5.6,2.1-5.6,6v2.4H103v-2.4C103,65.1,101.3,63,97.4,63z"/>
		<path class="st3" d="M106.1,24c0-3.6-1.8-6.3-6.8-6.3H90v12.6h9.3C104.3,30.3,106.1,27.6,106.1,24z"/>
		<path class="st3" d="M67.1,17.2c-7.2,0-12.2,5.1-12.2,12.1c0,7,5,12.1,12.2,12.1s12.2-5.1,12.2-12.1
			C79.2,22.3,74.3,17.2,67.1,17.2z"/>
		<path class="st2" d="M67.1,14.3c-9,0-15.3,6.3-15.3,15c0,8.6,6.3,15,15.3,15s15.3-6.3,15.3-15C82.4,20.6,76.1,14.3,67.1,14.3z
			 M67.1,41.3c-7.2,0-12.2-5.1-12.2-12.1c0-7,5-12.1,12.2-12.1s12.2,5.1,12.2,12.1C79.2,36.2,74.3,41.3,67.1,41.3z"/>
		<path class="st2" d="M90,33.2h9.3c6.9,0,10-4,10-9.2c0-5.3-3.1-9.2-10-9.2H86.9v28.8H90V33.2z M90,17.7h9.3c5,0,6.8,2.7,6.8,6.3
			c0,3.6-1.8,6.3-6.8,6.3H90V17.7z"/>
		<polygon class="st2" points="134.4,40.7 116.4,40.7 116.4,30.5 131.8,30.5 131.8,27.6 116.4,27.6 116.4,17.7 134.4,17.7 
			134.4,14.8 113.2,14.8 113.2,43.6 134.4,43.6 		"/>
		<path class="st2" d="M141.9,26.2c0-5.6,3.1-9,8.9-9c5.8,0,8.9,3.4,8.9,9v17.5h3.2V26.2c0-7.3-4.3-11.9-12.1-11.9
			c-7.8,0-12.1,4.6-12.1,11.9v17.5h3.2V26.2z"/>
		<path class="st2" d="M69.9,56.4c-3.5,0-6.3,1.4-7.9,3.9h-0.1c-1.7-2.6-4.4-3.9-7.9-3.9c-5.8,0-10.3,3.4-10.3,11.1v18.2h7.1V67.6
			c0-3.3,1.6-4.5,3.8-4.5c2.1,0,3.8,1.2,3.8,4.5v18.2h7.1V67.6c0-3.3,1.7-4.5,3.8-4.5c2.2,0,3.8,1.2,3.8,4.5v18.2h7.1V67.6
			C80.2,59.8,75.7,56.4,69.9,56.4z"/>
		<path class="st2" d="M97.4,56.4c-8.2,0-12.6,4.8-12.6,12.6v16.7h7v-8.2H103v8.2h7.1V69.1C110.1,61.2,105.7,56.4,97.4,56.4z
			 M103,71.4H91.7v-2.4c0-4,1.8-6,5.6-6c3.9,0,5.6,2.1,5.6,6V71.4z"/>
		<path class="st2" d="M132.7,75.8c3.7-1.5,5.4-4.8,5.4-8.9c0-5.7-3.4-9.9-11-9.9h-11.7v28.8h7.1v-9h3l5.1,9h8.5L132.7,75.8
			L132.7,75.8z M127.2,70.2h-4.6v-6.6h4.6c2.9,0,3.7,1.4,3.7,3.3C130.9,68.7,130,70.2,127.2,70.2z"/>
		<polygon class="st2" points="140.7,63.6 148.6,63.6 148.6,85.8 155.7,85.8 155.7,63.6 163.6,63.6 163.6,57 140.7,57 		"/>
		<path class="st2" d="M181.6,59.3c5.4,0,9.6,2.9,11.3,7.3h3.3c-1.8-6.1-7.4-10.2-14.6-10.2c-9,0-15.3,6.3-15.3,15
			c0,8.6,6.3,15,15.3,15c7.2,0,12.8-4.1,14.6-10.2h-3.3c-1.7,4.4-5.9,7.3-11.3,7.3c-7.2,0-12.2-5.1-12.2-12.1
			C169.5,64.4,174.4,59.3,181.6,59.3z"/>
		<rect x="201" y="57" class="st2" width="3.2" height="28.8"/>
		<polygon class="st2" points="208.4,59.9 218.1,59.9 218.1,85.8 221.3,85.8 221.3,59.9 231.1,59.9 231.1,57 208.4,57 		"/>
		<polygon class="st2" points="246.7,70.5 246.6,70.5 237,57 233.2,57 245,73.2 245,85.8 248.2,85.8 248.2,73.1 260,57 256.2,57 		
			"/>
		<path class="st3" d="M150.6,29.3c-0.7,0-1.3,0.6-1.3,1.3c0,0.7,0.6,1.3,1.3,1.3c0.9,0,1.3-0.7,1.3-1.3
			C151.9,30,151.5,29.4,150.6,29.3z"/>
		<path class="st1" d="M195.9,34c-0.1-0.1-0.2-0.2-0.3-0.3c0.1,0.2,0.3,0.5,0.4,0.7l0.1-0.2L195.9,34z"/>
	</g>
	<g>
		<path class="st3" d="M240.5,29.6c1.8-0.8,2.6-2.4,2.6-4.4c0-2.8-1.7-4.9-5.4-4.9H232v14.2h3.5v-4.4h1.5l2.5,4.4h4.2L240.5,29.6
			L240.5,29.6z M237.8,26.9h-2.3v-3.2h2.3c1.4,0,1.8,0.7,1.8,1.6C239.6,26.2,239.2,26.9,237.8,26.9z"/>
		<path class="st3" d="M222.5,23.3c1.8,0,3.1,1,3.7,2.4h3.7c-0.7-3.4-3.6-5.7-7.4-5.7c-4.4,0-7.5,3.1-7.5,7.4c0,4.3,3.1,7.4,7.5,7.4
			c3.8,0,6.7-2.3,7.4-5.7h-3.7c-0.6,1.5-1.9,2.4-3.7,2.4c-2.4,0-4-1.7-4-4.1C218.5,25.1,220.1,23.3,222.5,23.3z"/>
		<polygon class="st3" points="245.5,34.6 256,34.6 256,31.3 249,31.3 249,28.8 254.7,28.8 254.7,26 249,26 249,23.6 256,23.6 
			256,20.4 245.5,20.4 		"/>
		<path class="st3" d="M203.5,32.7c0.9,1.4,2.5,2.2,4.7,2.2c3.2,0,5.3-1.8,5.3-4.6c0-5.7-7-3.3-7-5.7c0-0.7,0.5-1.5,1.8-1.5
			c1.2,0,1.7,0.7,1.8,1.5h3.3c-0.1-2.7-2.1-4.5-5.1-4.5c-3.1,0-5.1,1.9-5.1,4.6c0,5.7,7,3.3,7,5.7c0,0.9-0.5,1.5-1.9,1.5
			c-1.4,0-1.9-0.6-1.9-1.5H204c0,0.1,0,0.2,0,0.3C204,31.4,203.8,32.1,203.5,32.7z"/>
		<path class="st3" d="M152.8,30.7c0-1-0.7-2.1-2.1-2.2l0,0c-1.2,0-2.2,1-2.2,2.2c0,1.2,1,2.2,2.2,2.2
			C152.1,32.8,152.8,31.7,152.8,30.7z M150.7,32c-0.7,0-1.3-0.6-1.3-1.3c0-0.7,0.6-1.3,1.3-1.3c0.9,0,1.3,0.7,1.3,1.3
			C152,31.3,151.6,32,150.7,32z"/>
		<path class="st3" d="M277.1,20.1c-3.9,0-6.1,2.3-6.1,6v8.5h3.5v-8.5c0-1.7,0.8-2.7,2.6-2.7c1.7,0,2.6,1,2.6,2.7v8.5h3.5v-8.5
			C283.2,22.4,281,20.1,277.1,20.1z"/>
		<polygon class="st3" points="258.4,34.6 268.9,34.6 268.9,31.3 261.9,31.3 261.9,28.8 267.6,28.8 267.6,26 261.9,26 261.9,23.6 
			268.9,23.6 268.9,20.4 258.4,20.4 		"/>
		<path class="st1" d="M237.8,23.6h-2.3v3.2h2.3c1.4,0,1.8-0.7,1.8-1.6C239.6,24.3,239.2,23.6,237.8,23.6z"/>
		<path class="st3" d="M150.7,29.4c-0.7,0-1.3,0.6-1.3,1.3c0,0.7,0.6,1.3,1.3,1.3c0.9,0,1.3-0.7,1.3-1.3
			C152,30.1,151.6,29.5,150.7,29.4z"/>
		<path class="st1" d="M281.6,14.2h-77.1c-6.2,0-11.2,5-11.2,11.2v4c0,2.4,0.8,4.7,2.1,6.5l-5.6,12.4H152V35.3l0.3-0.1
			c1.9-0.7,3.2-2.5,3.2-4.5c0-2.6-2.1-4.8-4.8-4.8c-3,0.1-4.4,2.2-4.7,4c-0.3,1.9,0.5,4.3,3.1,5.3l0.3,0.1v15.8h42l5.9-13
			c1.9,1.6,4.5,2.6,7.2,2.6h77.1c6.2,0,11.2-5,11.2-11.2v-4C292.8,19.3,287.8,14.2,281.6,14.2z M148.5,30.7c0-1.2,1-2.2,2.2-2.2l0,0
			c1.4,0.1,2.1,1.1,2.1,2.2c0,1-0.7,2.1-2.1,2.2C149.5,32.9,148.5,31.9,148.5,30.7z M208.2,34.9c-2.2,0-3.8-0.8-4.7-2.2
			c-0.4-0.6-0.7-1.4-0.7-2.3h1.1h2.3c0,0.9,0.5,1.5,1.9,1.5c1.4,0,1.9-0.6,1.9-1.5c0-2.4-7,0-7-5.7c0-2.7,2-4.6,5.1-4.6
			c3,0,5,1.8,5.1,4.5H210c0-0.8-0.5-1.5-1.8-1.5c-1.3,0-1.8,0.7-1.8,1.5c0,2.4,7,0,7,5.7C213.5,33.1,211.4,34.9,208.2,34.9z
			 M222.5,31.6c1.8,0,3.1-1,3.7-2.4h3.7c-0.7,3.4-3.6,5.7-7.4,5.7c-4.4,0-7.5-3.1-7.5-7.4c0-4.3,3.1-7.4,7.5-7.4
			c3.8,0,6.7,2.3,7.4,5.7h-3.7c-0.6-1.5-1.9-2.4-3.7-2.4c-2.4,0-4,1.7-4,4.1C218.5,29.9,220.1,31.6,222.5,31.6z M239.5,34.6
			l-2.5-4.4h-1.5v4.4H232V20.4h5.7c3.8,0,5.4,2,5.4,4.9c0,2-0.8,3.6-2.6,4.4v0l3.2,4.9H239.5z M256,23.6h-7V26h5.7v2.8H249v2.5h7
			v3.3h-10.5V20.4H256V23.6z M268.9,23.6h-7V26h5.7v2.8h-5.7v2.5h7v3.3h-10.5V20.4h10.5V23.6z M283.2,34.6h-3.5v-8.5
			c0-1.7-0.8-2.7-2.6-2.7c-1.7,0-2.6,1-2.6,2.7v8.5H271v-8.5c0-3.7,2.2-6,6.1-6s6.1,2.3,6.1,6V34.6z"/>
	</g>
</g>
</svg>
